<?xml version="1.0" encoding="UTF-8" standalone="no"?>
<svg
   xmlns:dc="http://purl.org/dc/elements/1.1/"
   xmlns:cc="http://creativecommons.org/ns#"
   xmlns:rdf="http://www.w3.org/1999/02/22-rdf-syntax-ns#"
   xmlns:svg="http://www.w3.org/2000/svg"
   xmlns="http://www.w3.org/2000/svg"
   id="svg8"
   version="1.1"
   viewBox="-10 -10 163 157">

  <g
     transform="translate(-32.894446,-51.086163)"
     style="display:inline"
     id="layer1">
    <path
       id="path10868"
       d="m 51.32072,187.3773 c -3.98166,-1.0708 -6.835227,-3.22188 -8.947467,-6.7448 -2.334397,-3.8934 -2.202617,-0.0445 -2.101067,-61.36091 l 0.0913,-55.092236 0.69824,-1.844371 c 0.38402,-1.014414 1.372417,-2.886565 2.196417,-4.160333 2.42202,-3.744065 7.245187,-6.541966 12.100884,-7.01968 4.891977,-0.481282 10.384904,1.591924 14.210871,5.363634 2.46022,2.425346 3.79115,4.613175 9.874084,16.231409 2.28029,4.355286 4.58645,8.665722 5.124797,9.578786 0.53836,0.913047 2.31371,4.244286 3.94522,7.402786 1.631527,3.1585 4.434487,8.45659 6.228794,11.773545 6.137917,11.34648 8.047787,14.95017 8.047787,15.18523 0,0.65939 4.77234,8.63429 5.25946,8.78889 1.11938,0.35528 1.96268,-0.74911 5.01179,-6.56347 1.70189,-3.24533 3.09434,-5.99162 3.09434,-6.10288 0,-0.11124 1.07693,-2.1509 2.39317,-4.53255 1.31624,-2.38167 4.12675,-7.63095 6.24558,-11.665075 2.11881,-4.03413 6.34869,-12.029038 9.39971,-17.766435 3.05104,-5.737397 6.30343,-11.903284 7.22756,-13.701962 4.055,-7.892451 6.81305,-10.816521 12.38587,-13.131434 1.59926,-0.664326 2.52068,-0.815891 5.05285,-0.83115 8.70419,-0.05245 15.18301,5.202501 16.79381,13.621427 0.72148,3.770766 0.71677,107.426509 -0.005,110.833639 -1.36273,6.43254 -4.96905,10.11091 -11.55824,11.78917 -2.53298,0.64514 -7.12592,0.49434 -9.69375,-0.31828 -4.02862,-1.27491 -8.02914,-5.18199 -9.5922,-9.36819 l -0.77446,-2.07416 -0.0644,-26.67548 c -0.0487,-20.19038 -0.15943,-26.7901 -0.45558,-27.14692 -0.78549,-0.94645 -1.08343,-0.48916 -8.19959,12.58464 -1.70785,3.13766 -5.26507,9.8123 -7.90494,14.83255 -4.97296,9.45716 -6.59809,12.06146 -9.01068,14.4399 -3.70951,3.657 -10.50845,4.96157 -15.68457,3.00951 -4.570257,-1.72357 -7.692697,-5.33555 -12.490254,-14.44853 -1.624027,-3.08484 -3.692807,-6.92905 -4.597287,-8.5427 -0.90448,-1.61366 -2.201207,-3.96079 -2.881627,-5.21585 -0.68041,-1.25506 -1.77981,-3.23545 -2.44309,-4.40086 -0.66327,-1.16542 -2.052187,-3.80594 -3.086467,-5.86783 -1.03428,-2.06189 -2.25971,-4.15434 -2.72317,-4.64989 -0.76089,-0.81358 -0.89168,-0.85201 -1.347817,-0.39609 -0.44489,0.4447 -0.5246,3.58523 -0.66815,26.32825 l -0.16299,25.82332 -1.09195,2.71222 c -1.27596,3.16924 -3.873487,6.22102 -6.521937,7.66249 -3.623397,1.9721 -9.503364,2.70212 -13.375861,1.66067 z"
       style="display:inline;fill:#00ffff;fill-opacity:1;stroke:none;stroke-width:0" />
  </g>
  <g
     transform="translate(-32.894446,-51.086163)"
     style="display:inline;opacity:1;mix-blend-mode:multiply"
     id="layer2">
    <path
       id="path10868-0"
       d="m 43.987863,187.37737 c -3.981657,-1.0708 -6.835227,-3.22188 -8.947464,-6.7448 -2.3344,-3.8934 -2.20262,-0.0445 -2.10107,-61.36091 l 0.0913,-55.092353 0.69824,-1.844385 c 0.38402,-1.014414 1.37242,-2.88657 2.19642,-4.160338 2.422017,-3.744065 7.245184,-6.541966 12.100881,-7.01968 4.891977,-0.481282 10.384904,1.591924 14.210874,5.363634 2.460217,2.425346 3.791147,4.613183 9.874084,16.231475 2.280287,4.355301 4.586447,8.665769 5.124797,9.578827 0.53836,0.913051 2.313707,4.244319 3.945217,7.402811 1.63153,3.1585 4.434487,8.45659 6.228797,11.773549 6.137917,11.34648 8.047784,14.95017 8.047784,15.18523 0,0.65939 4.772337,8.63429 5.259457,8.78889 1.11938,0.35528 1.96268,-0.74911 5.01179,-6.56347 1.70189,-3.24533 3.09434,-5.99162 3.09434,-6.10288 0,-0.11124 1.07693,-2.1509 2.39317,-4.53255 1.31624,-2.38167 4.12675,-7.63095 6.24558,-11.665079 2.11881,-4.03413 6.34869,-12.029044 9.39971,-17.76647 3.05104,-5.73743 6.30343,-11.903345 7.22756,-13.702034 4.055,-7.892476 6.81305,-10.816546 12.38587,-13.131459 1.59926,-0.664326 2.52068,-0.815891 5.05285,-0.83115 8.70419,-0.05245 15.18301,5.202501 16.79382,13.621444 0.72147,3.770794 0.71676,107.426628 -0.005,110.833758 -1.36273,6.43254 -4.96904,10.11091 -11.55824,11.78917 -2.53298,0.64514 -7.12592,0.49434 -9.69375,-0.31828 -4.02862,-1.27491 -8.02914,-5.18199 -9.5922,-9.36819 l -0.77446,-2.07416 -0.0644,-26.67548 c -0.0487,-20.19038 -0.15943,-26.7901 -0.45558,-27.14692 -0.78549,-0.94645 -1.08343,-0.48916 -8.19959,12.58464 -1.70785,3.13766 -5.26507,9.8123 -7.90494,14.83255 -4.97296,9.45716 -6.59809,12.06146 -9.01068,14.4399 -3.70951,3.657 -10.50845,4.96157 -15.684567,3.00951 -4.570257,-1.72357 -7.692694,-5.33555 -12.490251,-14.44853 -1.62403,-3.08484 -3.69281,-6.92905 -4.597287,-8.5427 -0.90448,-1.61366 -2.20121,-3.96079 -2.88163,-5.21585 -0.68041,-1.25506 -1.77981,-3.23545 -2.443087,-4.40086 -0.66327,-1.16542 -2.05219,-3.80594 -3.08647,-5.86783 -1.03428,-2.06189 -2.259707,-4.15434 -2.723167,-4.64989 -0.76089,-0.81358 -0.89168,-0.85201 -1.34782,-0.39609 -0.44489,0.4447 -0.5246,3.58523 -0.66815,26.32825 l -0.16299,25.82332 -1.09195,2.71222 c -1.275957,3.16924 -3.873487,6.22102 -6.521934,7.66249 -3.6234,1.9721 -9.503367,2.70212 -13.375864,1.66067 z"
       style="display:inline;opacity:1;fill:#fe0000;fill-opacity:1;stroke:none;stroke-width:0" />
  </g>
  <g
     transform="translate(-32.894446,-51.086163)"
     style="display:inline;opacity:1;mix-blend-mode:lighten"
     id="layer3">
    <path
       id="path10868-7"
       d="m 51.320726,187.3773 c -3.98166,-1.0708 -6.83523,-3.22188 -8.94747,-6.7448 -2.3344,-3.8934 -2.20262,-0.0445 -2.10107,-61.36091 l 0.0913,-55.092236 0.69824,-1.844371 c 0.38402,-1.014414 1.37242,-2.886566 2.19642,-4.160334 2.42202,-3.744065 7.24519,-6.541966 12.10088,-7.01968 4.89198,-0.481282 10.38491,1.591924 14.21087,5.363634 2.46022,2.425346 3.79115,4.613176 9.87409,16.23141 2.28029,4.355286 4.58645,8.665721 5.1248,9.578785 0.53835,0.913048 2.31371,4.244287 3.94521,7.402788 1.63153,3.1585 4.43449,8.456588 6.2288,11.773544 6.137924,11.34648 8.047794,14.95017 8.047794,15.18523 0,0.65939 4.77234,8.63429 5.25946,8.78889 1.11938,0.35528 1.96267,-0.74911 5.01179,-6.56347 1.70189,-3.24533 3.09434,-5.99162 3.09434,-6.10288 0,-0.11124 1.07693,-2.1509 2.39316,-4.53255 1.31625,-2.38167 4.12676,-7.63095 6.24559,-11.665076 2.11881,-4.034128 6.34869,-12.029038 9.3997,-17.766435 3.05104,-5.737396 6.30344,-11.903283 7.22756,-13.701961 4.05501,-7.892452 6.81305,-10.816522 12.38587,-13.131435 1.59927,-0.664326 2.52069,-0.815891 5.05286,-0.83115 8.70418,-0.05245 15.183,5.202501 16.7938,13.621428 0.72149,3.770766 0.71678,107.426509 -0.005,110.833639 -1.36273,6.43254 -4.96905,10.11091 -11.55824,11.78917 -2.53298,0.64514 -7.12592,0.49434 -9.69375,-0.31828 -4.02862,-1.27491 -8.02914,-5.18199 -9.5922,-9.36819 l -0.77446,-2.07416 -0.0644,-26.67548 c -0.0487,-20.19038 -0.15943,-26.7901 -0.45558,-27.14692 -0.78549,-0.94645 -1.08343,-0.48916 -8.19959,12.58464 -1.70785,3.13766 -5.26507,9.8123 -7.90494,14.83255 -4.97296,9.45716 -6.59809,12.06146 -9.01068,14.4399 -3.70951,3.657 -10.50845,4.96157 -15.68457,3.00951 -4.570254,-1.72357 -7.692694,-5.33555 -12.490254,-14.44853 -1.62402,-3.08484 -3.6928,-6.92905 -4.59729,-8.5427 -0.90448,-1.61366 -2.2012,-3.96079 -2.88162,-5.21585 -0.68041,-1.25506 -1.77981,-3.23545 -2.44309,-4.40086 -0.66327,-1.16542 -2.05219,-3.80594 -3.08647,-5.86783 -1.03428,-2.06189 -2.25971,-4.15434 -2.72317,-4.64989 -0.76089,-0.81358 -0.89168,-0.85201 -1.34782,-0.39609 -0.44489,0.4447 -0.5246,3.58523 -0.66815,26.32825 l -0.16299,25.82332 -1.09195,2.71222 c -1.27596,3.16924 -3.87348,6.22102 -6.52193,7.66249 -3.6234,1.9721 -9.50337,2.70212 -13.37586,1.66067 z"
       style="display:inline;fill:#280046;fill-opacity:0;stroke-width:2px" />
    <path
       transform="matrix(0.26458333,0,0,0.26458333,32.894446,51.086163)"
       id="path10868-0-6"
       d="M 41.927875,515.11638 C 26.879092,511.06926 16.093946,502.93919 8.1106875,489.62422 -0.71224176,474.90901 -0.21417562,489.45603 0.16963541,257.70897 L 0.51470628,49.485897 3.1537236,42.514993 C 4.6051378,38.680988 8.3408229,31.605122 11.455154,26.790881 20.609234,12.640084 38.838527,2.0653401 57.190767,0.25980683 75.680129,-1.5592118 96.440799,6.2765275 110.90116,20.53181 c 9.29846,9.166662 14.32874,17.435652 37.31937,61.347307 8.61841,16.460981 17.3346,32.752513 19.36931,36.203443 2.03475,3.4509 8.74472,16.04152 14.91106,27.97913 6.16641,11.93763 16.76027,31.96191 23.54191,44.49845 23.19843,42.88433 30.41682,56.50458 30.41682,57.393 0,2.49218 18.03718,32.63353 19.87826,33.21785 4.23073,1.34279 7.41801,-2.83128 18.9422,-24.80682 6.43234,-12.26581 11.69515,-22.64549 11.69515,-23.066 0,-0.42044 4.07028,-8.12939 9.04505,-17.1309 4.97476,-9.00159 15.59716,-28.84138 23.60534,-44.08849 8.0081,-15.2471 23.99505,-45.4641 35.52646,-67.14886 11.53149,-21.684776 23.82399,-44.989021 27.31677,-51.787216 15.32598,-29.829831 25.75011,-40.881434 46.81273,-49.6307119 6.04445,-2.5108385 9.52698,-3.08368259 19.09739,-3.1413544 32.89773,-0.19823622 57.3846,19.6629963 63.47271,51.4826233 2.72681,14.25182 2.70901,406.021909 -0.0189,418.899249 -5.15048,24.31196 -18.78063,38.21446 -43.68469,44.55749 -9.57347,2.43833 -26.93261,1.86837 -36.63779,-1.20295 -15.22629,-4.81855 -30.34636,-19.58547 -36.25399,-35.40733 l -2.92709,-7.83934 -0.2434,-100.82072 c -0.18407,-76.3101 -0.60257,-101.25392 -1.72188,-102.60253 -2.96878,-3.57713 -4.09485,-1.84879 -30.99058,47.56399 -6.45486,11.85888 -19.89948,37.08586 -29.87694,56.06004 -18.79544,35.74359 -24.93766,45.58662 -34.05611,54.576 -14.0202,13.82173 -39.71698,18.75239 -59.28025,11.37452 -17.27342,-6.51428 -29.07475,-20.16586 -47.20725,-54.60861 -6.13807,-11.65924 -13.95708,-26.18854 -17.37558,-32.28738 -3.4185,-6.09887 -8.31953,-14.96991 -10.8912,-19.71344 -2.57162,-4.74354 -6.72684,-12.22848 -9.23371,-16.63318 -2.50685,-4.40473 -7.75631,-14.38465 -11.6654,-22.17762 -3.90909,-7.79297 -8.54062,-15.70144 -10.29228,-17.57439 -2.87581,-3.07495 -3.37013,-3.22019 -5.09413,-1.49703 -1.68147,1.68075 -1.98274,13.55047 -2.52529,99.50835 l -0.61602,97.59995 -4.12706,10.25091 c -4.82251,11.97823 -14.63995,23.51251 -24.649828,28.96059 -13.694741,7.45361 -35.918238,10.21274 -50.554447,6.27655 z"
       style="display:inline;opacity:1;fill:#280046;fill-opacity:1;stroke:none;stroke-width:0" />
  </g>
</svg>
